<svg width="24" height="24" viewBox="0 0 24 24" fill="none" xmlns="http://www.w3.org/2000/svg">
<path d="M4.80005 4.80002V19.2C4.80005 19.8365 5.05291 20.447 5.50299 20.8971C5.95308 21.3472 6.56353 21.6 7.20005 21.6H18.6C18.7592 21.6 18.9118 21.5368 19.0243 21.4243C19.1368 21.3118 19.2 21.1592 19.2 21C19.2 20.8409 19.1368 20.6883 19.0243 20.5758C18.9118 20.4632 18.7592 20.4 18.6 20.4H7.20005C6.88179 20.4 6.57656 20.2736 6.35152 20.0486C6.12648 19.8235 6.00005 19.5183 6.00005 19.2H18C18.3183 19.2 18.6235 19.0736 18.8486 18.8486C19.0736 18.6235 19.2 18.3183 19.2 18V4.80002C19.2 4.1635 18.9472 3.55306 18.4971 3.10297C18.047 2.65288 17.4366 2.40002 16.8 2.40002H7.20005C6.56353 2.40002 5.95308 2.65288 5.50299 3.10297C5.05291 3.55306 4.80005 4.1635 4.80005 4.80002ZM16.8 3.60002C17.1183 3.60002 17.4235 3.72645 17.6486 3.9515C17.8736 4.17654 18 4.48176 18 4.80002V18H6.00005V4.80002C6.00005 4.48176 6.12648 4.17654 6.35152 3.9515C6.57656 3.72645 6.88179 3.60002 7.20005 3.60002H16.8ZM12.9 6.90002C12.9 6.66133 12.8052 6.43241 12.6364 6.26363C12.4677 6.09485 12.2387 6.00002 12 6.00002C11.7614 6.00002 11.5324 6.09485 11.3637 6.26363C11.1949 6.43241 11.1 6.66133 11.1 6.90002C11.1 7.13872 11.1949 7.36764 11.3637 7.53642C11.5324 7.7052 11.7614 7.80002 12 7.80002C12.2387 7.80002 12.4677 7.7052 12.6364 7.53642C12.8052 7.36764 12.9 7.13872 12.9 6.90002ZM12.6 15C12.6 15.1592 12.5368 15.3118 12.4243 15.4243C12.3118 15.5368 12.1592 15.6 12 15.6C11.8409 15.6 11.6883 15.5368 11.5758 15.4243C11.4633 15.3118 11.4 15.1592 11.4 15V10.2C11.4 10.0409 11.4633 9.88828 11.5758 9.77576C11.6883 9.66324 11.8409 9.60002 12 9.60002C12.1592 9.60002 12.3118 9.66324 12.4243 9.77576C12.5368 9.88828 12.6 10.0409 12.6 10.2V15Z" fill="black"/>
</svg>
