<svg width="30" height="30" viewBox="0 0 30 30" fill="none" xmlns="http://www.w3.org/2000/svg">
<path d="M26.25 8.27V21.7313C26.25 22.3062 26.0575 22.7867 25.6725 23.1725C25.2875 23.5583 24.8071 23.7508 24.2313 23.75H5.76875C5.19375 23.75 4.71375 23.5575 4.32875 23.1725C3.94375 22.7875 3.75083 22.3067 3.75 21.73V8.27C3.75 7.69417 3.94292 7.21375 4.32875 6.82875C4.71458 6.44375 5.19458 6.25083 5.76875 6.25H24.2313C24.8062 6.25 25.2863 6.44292 25.6713 6.82875C26.0563 7.21458 26.2492 7.695 26.25 8.27ZM5 11.01H25V8.27C25 8.0775 24.92 7.90083 24.76 7.74C24.6 7.57917 24.4237 7.49917 24.2313 7.5H5.76875C5.57708 7.5 5.40083 7.58 5.24 7.74C5.07917 7.9 4.99917 8.07667 5 8.27V11.01ZM5 13.99V21.7313C5 21.9229 5.08 22.0992 5.24 22.26C5.4 22.4208 5.57625 22.5008 5.76875 22.5H24.2313C24.4229 22.5 24.5992 22.42 24.76 22.26C24.9208 22.1 25.0008 21.9237 25 21.7313V13.99H5Z" fill="#FF9800"/>
</svg>
