<svg width="24" height="24" viewBox="0 0 24 24" fill="none" xmlns="http://www.w3.org/2000/svg">
<path d="M18.501 3.5L3.50098 18.501L5.49698 20.497L20.497 5.497L18.501 3.5ZM17.003 14C17.3969 14.0004 17.787 14.0784 18.1508 14.2295C18.5146 14.3806 18.8451 14.6019 19.1234 14.8808C19.4017 15.1597 19.6224 15.4906 19.7728 15.8547C19.9232 16.2188 20.0004 16.609 20 17.003C19.9996 17.397 19.9216 17.787 19.7705 18.1508C19.6193 18.5146 19.398 18.8451 19.1192 19.1234C18.8403 19.4017 18.5094 19.6224 18.1453 19.7728C17.7811 19.9232 17.3909 20.0004 16.997 20C16.2013 19.9992 15.4386 19.6824 14.8765 19.1192C14.3145 18.556 13.9992 17.7926 14 16.997C14.0008 16.2014 14.3176 15.4386 14.8808 14.8766C15.4439 14.3145 16.2073 13.9992 17.003 14ZM17 16C16.7348 16 16.4804 16.1054 16.2929 16.2929C16.1053 16.4804 16 16.7348 16 17C16 17.2652 16.1053 17.5196 16.2929 17.7071C16.4804 17.8946 16.7348 18 17 18C17.2652 18 17.5195 17.8946 17.7071 17.7071C17.8946 17.5196 18 17.2652 18 17C18 16.7348 17.8946 16.4804 17.7071 16.2929C17.5195 16.1054 17.2652 16 17 16ZM7.00298 4C7.79863 4.0008 8.56137 4.31763 9.12342 4.8808C9.68546 5.44397 10.0008 6.20735 9.99998 7.003C9.99918 7.79865 9.68235 8.5614 9.11918 9.12344C8.556 9.68549 7.79263 10.0008 6.99698 10C6.20133 9.9992 5.43858 9.68237 4.87653 9.1192C4.31449 8.55603 3.99918 7.79265 3.99998 6.997C4.00077 6.20135 4.31761 5.4386 4.88078 4.87656C5.44395 4.31451 6.20733 3.9992 7.00298 4ZM6.99998 6C6.73476 6 6.48041 6.10536 6.29287 6.29289C6.10533 6.48043 5.99998 6.73478 5.99998 7C5.99998 7.26522 6.10533 7.51957 6.29287 7.70711C6.48041 7.89464 6.73476 8 6.99998 8C7.26519 8 7.51955 7.89464 7.70708 7.70711C7.89462 7.51957 7.99998 7.26522 7.99998 7C7.99998 6.73478 7.89462 6.48043 7.70708 6.29289C7.51955 6.10536 7.26519 6 6.99998 6Z" fill="black"/>
</svg>
