<svg width="18" height="18" viewBox="0 0 18 18" fill="none" xmlns="http://www.w3.org/2000/svg">
<path d="M17.8125 0.75V4.5C17.8125 4.64918 17.7532 4.79226 17.6477 4.89775C17.5423 5.00324 17.3992 5.0625 17.25 5.0625C17.1008 5.0625 16.9577 5.00324 16.8523 4.89775C16.7468 4.79226 16.6875 4.64918 16.6875 4.5V1.3125H13.5C13.3508 1.3125 13.2077 1.25324 13.1023 1.14775C12.9968 1.04226 12.9375 0.899184 12.9375 0.75C12.9375 0.600816 12.9968 0.457742 13.1023 0.352252C13.2077 0.246763 13.3508 0.1875 13.5 0.1875H17.25C17.3992 0.1875 17.5423 0.246763 17.6477 0.352252C17.7532 0.457742 17.8125 0.600816 17.8125 0.75ZM4.5 16.6875H1.3125V13.5C1.3125 13.3508 1.25324 13.2077 1.14775 13.1023C1.04226 12.9968 0.899184 12.9375 0.75 12.9375C0.600816 12.9375 0.457742 12.9968 0.352252 13.1023C0.246763 13.2077 0.1875 13.3508 0.1875 13.5V17.25C0.1875 17.3992 0.246763 17.5423 0.352252 17.6477C0.457742 17.7532 0.600816 17.8125 0.75 17.8125H4.5C4.64918 17.8125 4.79226 17.7532 4.89775 17.6477C5.00324 17.5423 5.0625 17.3992 5.0625 17.25C5.0625 17.1008 5.00324 16.9577 4.89775 16.8523C4.79226 16.7468 4.64918 16.6875 4.5 16.6875ZM17.25 12.9375C17.1008 12.9375 16.9577 12.9968 16.8523 13.1023C16.7468 13.2077 16.6875 13.3508 16.6875 13.5V16.6875H13.5C13.3508 16.6875 13.2077 16.7468 13.1023 16.8523C12.9968 16.9577 12.9375 17.1008 12.9375 17.25C12.9375 17.3992 12.9968 17.5423 13.1023 17.6477C13.2077 17.7532 13.3508 17.8125 13.5 17.8125H17.25C17.3992 17.8125 17.5423 17.7532 17.6477 17.6477C17.7532 17.5423 17.8125 17.3992 17.8125 17.25V13.5C17.8125 13.3508 17.7532 13.2077 17.6477 13.1023C17.5423 12.9968 17.3992 12.9375 17.25 12.9375ZM0.75 5.0625C0.899184 5.0625 1.04226 5.00324 1.14775 4.89775C1.25324 4.79226 1.3125 4.64918 1.3125 4.5V1.3125H4.5C4.64918 1.3125 4.79226 1.25324 4.89775 1.14775C5.00324 1.04226 5.0625 0.899184 5.0625 0.75C5.0625 0.600816 5.00324 0.457742 4.89775 0.352252C4.79226 0.246763 4.64918 0.1875 4.5 0.1875H0.75C0.600816 0.1875 0.457742 0.246763 0.352252 0.352252C0.246763 0.457742 0.1875 0.600816 0.1875 0.75V4.5C0.1875 4.64918 0.246763 4.79226 0.352252 4.89775C0.457742 5.00324 0.600816 5.0625 0.75 5.0625ZM4.5 3.9375H13.5C13.6492 3.9375 13.7923 3.99676 13.8977 4.10225C14.0032 4.20774 14.0625 4.35082 14.0625 4.5V13.5C14.0625 13.6492 14.0032 13.7923 13.8977 13.8977C13.7923 14.0032 13.6492 14.0625 13.5 14.0625H4.5C4.35082 14.0625 4.20774 14.0032 4.10225 13.8977C3.99676 13.7923 3.9375 13.6492 3.9375 13.5V4.5C3.9375 4.35082 3.99676 4.20774 4.10225 4.10225C4.20774 3.99676 4.35082 3.9375 4.5 3.9375ZM5.0625 12.9375H12.9375V5.0625H5.0625V12.9375Z" fill="black"/>
</svg>
