<svg width="20" height="20" viewBox="0 0 20 20" fill="none" xmlns="http://www.w3.org/2000/svg">
<path d="M9.25 13.25H10.75V8.75H9.25V13.25ZM10 7.25C10.2125 7.25 10.3908 7.178 10.5347 7.034C10.6788 6.89 10.7505 6.712 10.75 6.5C10.7495 6.288 10.6775 6.11 10.534 5.966C10.3905 5.822 10.2125 5.75 10 5.75C9.7875 5.75 9.6095 5.822 9.466 5.966C9.3225 6.11 9.2505 6.288 9.25 6.5C9.2495 6.712 9.3215 6.89025 9.466 7.03475C9.6105 7.17925 9.7885 7.251 10 7.25ZM10 17C8.2625 16.5625 6.828 15.5655 5.6965 14.009C4.565 12.4525 3.9995 10.7245 4 8.825V4.25L10 2L16 4.25V8.825C16 10.725 15.4345 12.4532 14.3035 14.0098C13.1725 15.5663 11.738 16.563 10 17ZM10 15.425C11.3 15.0125 12.375 14.1875 13.225 12.95C14.075 11.7125 14.5 10.3375 14.5 8.825V5.28125L10 3.59375L5.5 5.28125V8.825C5.5 10.3375 5.925 11.7125 6.775 12.95C7.625 14.1875 8.7 15.0125 10 15.425Z" fill="black"/>
</svg>
