<svg width="6" height="10" viewBox="0 0 6 10" fill="none" xmlns="http://www.w3.org/2000/svg">
<path fill-rule="evenodd" clip-rule="evenodd" d="M2.27771 2.91725C2.04726 3.31564 1.53748 3.45177 1.1391 3.22132C0.740717 2.99087 0.604581 2.48109 0.835034 2.08271C1.26604 1.33763 2.07367 0.833313 3.00007 0.833313C4.38078 0.833313 5.50007 1.9526 5.50007 3.33331C5.50006 4.24809 4.93892 4.99496 4.25007 5.41665C3.69675 5.75536 4.04173 6.66665 2.99788 6.66665C2.53765 6.66665 2.16455 6.29355 2.16455 5.83331C2.16455 5.80406 2.16606 5.77515 2.169 5.74667C2.19211 5.30595 2.38863 4.94735 2.6026 4.6866C2.82858 4.41121 3.12568 4.18641 3.35286 4.05135C4.61679 3.29998 3.07521 1.76281 2.27771 2.91725ZM2.99788 7.49998C2.53765 7.49998 2.16455 7.87308 2.16455 8.33331C2.16455 8.79355 2.53765 9.16665 2.99788 9.16665C3.45812 9.16665 3.83122 8.79355 3.83122 8.33331C3.83122 7.87308 3.45812 7.49998 2.99788 7.49998Z" fill="#262E3D"/>
</svg>
