<svg width="20" height="20" viewBox="0 0 20 20" fill="none" xmlns="http://www.w3.org/2000/svg">
<path d="M9.16663 7.50002H10.8333V5.83335H9.16663M9.99996 16.6667C6.32496 16.6667 3.33329 13.675 3.33329 10C3.33329 6.32502 6.32496 3.33335 9.99996 3.33335C13.675 3.33335 16.6666 6.32502 16.6666 10C16.6666 13.675 13.675 16.6667 9.99996 16.6667ZM9.99996 1.66669C8.90561 1.66669 7.82198 1.88224 6.81093 2.30102C5.79988 2.71981 4.88122 3.33364 4.1074 4.10746C2.5446 5.67027 1.66663 7.78988 1.66663 10C1.66663 12.2102 2.5446 14.3298 4.1074 15.8926C4.88122 16.6664 5.79988 17.2802 6.81093 17.699C7.82198 18.1178 8.90561 18.3334 9.99996 18.3334C12.2101 18.3334 14.3297 17.4554 15.8925 15.8926C17.4553 14.3298 18.3333 12.2102 18.3333 10C18.3333 8.90567 18.1177 7.82204 17.699 6.81099C17.2802 5.79994 16.6663 4.88129 15.8925 4.10746C15.1187 3.33364 14.2 2.71981 13.189 2.30102C12.1779 1.88224 11.0943 1.66669 9.99996 1.66669ZM9.16663 14.1667H10.8333V9.16669H9.16663V14.1667Z" fill="black"/>
</svg>
