<svg width="20" height="20" viewBox="0 0 20 20" fill="none" xmlns="http://www.w3.org/2000/svg">
<path fill-rule="evenodd" clip-rule="evenodd" d="M10.4166 1.66666C10.9911 1.66666 11.5113 1.8992 11.8882 2.27529C11.9028 2.28986 11.9172 2.30464 11.9314 2.31964C12.2645 2.6723 12.4758 3.14126 12.498 3.65921L12.4987 3.6767C12.4995 3.70103 12.5 3.72546 12.5 3.74999V3.76188C12.5 3.79575 12.5205 3.8262 12.5518 3.83918C12.5832 3.85216 12.6192 3.84518 12.6432 3.82121L12.6516 3.81281C12.669 3.79546 12.6865 3.77848 12.7043 3.76188L12.7172 3.74999C13.0991 3.39944 13.5802 3.21727 14.0651 3.20346C14.0857 3.20288 14.1063 3.20259 14.127 3.20261C14.6594 3.20318 15.1917 3.40657 15.5979 3.81281L16.1871 4.40206C16.5934 4.80829 16.7968 5.34055 16.7973 5.87299C16.7974 5.89361 16.7971 5.91423 16.7965 5.93484C16.7827 6.41978 16.6005 6.90082 16.25 7.28278L16.2381 7.29562C16.2215 7.31342 16.2045 7.33099 16.1871 7.34834L16.1787 7.35674C16.1548 7.38071 16.1478 7.4168 16.1608 7.44811C16.1737 7.4794 16.2042 7.49999 16.2381 7.49999H16.25C16.2745 7.49999 16.2989 7.50041 16.3232 7.50126L16.3407 7.50193C16.8587 7.52414 17.3276 7.73546 17.6803 8.0686C17.6953 8.08276 17.7101 8.09715 17.7247 8.11175C18.1008 8.48864 18.3333 9.00882 18.3333 9.58332V10.4167C18.3333 10.9912 18.1008 11.5113 17.7247 11.8882C17.7101 11.9028 17.6953 11.9172 17.6803 11.9314C17.3276 12.2645 16.8587 12.4758 16.3407 12.498L16.3232 12.4987C16.2989 12.4996 16.2745 12.5 16.25 12.5H16.2381C16.2042 12.5 16.1737 12.5206 16.1608 12.5519C16.1478 12.5832 16.1548 12.6193 16.1787 12.6432L16.1871 12.6516C16.2045 12.669 16.2215 12.6866 16.2381 12.7044L16.25 12.7172C16.6005 13.0992 16.7827 13.5802 16.7965 14.0651C16.7971 14.0858 16.7974 14.1064 16.7973 14.127C16.7968 14.6594 16.5934 15.1917 16.1871 15.5979L15.5979 16.1872C15.1917 16.5934 14.6594 16.7968 14.127 16.7974C14.1063 16.7974 14.0857 16.7971 14.0651 16.7965C13.5802 16.7827 13.0991 16.6005 12.7172 16.25L12.7043 16.2381C12.6865 16.2215 12.669 16.2045 12.6516 16.1872L12.6432 16.1788C12.6192 16.1548 12.5832 16.1478 12.5518 16.1608C12.5205 16.1738 12.5 16.2042 12.5 16.2381V16.25C12.5 16.2745 12.4995 16.299 12.4987 16.3233L12.498 16.3408C12.4758 16.8587 12.2645 17.3277 11.9314 17.6803C11.9172 17.6953 11.9028 17.7101 11.8882 17.7247C11.5113 18.1008 10.9911 18.3333 10.4166 18.3333H9.58329C9.00879 18.3333 8.48861 18.1008 8.11172 17.7247C8.09712 17.7101 8.08273 17.6953 8.06857 17.6803C7.73543 17.3277 7.52411 16.8587 7.5019 16.3408L7.50122 16.3233C7.50038 16.299 7.49996 16.2745 7.49996 16.25V16.2381C7.49996 16.2042 7.47937 16.1738 7.44808 16.1608C7.41677 16.1478 7.38068 16.1548 7.35671 16.1788L7.34831 16.1872C7.33096 16.2045 7.31338 16.2215 7.29559 16.2381L7.28275 16.25C6.90079 16.6005 6.41975 16.7827 5.93481 16.7965C5.9142 16.7971 5.89358 16.7974 5.87296 16.7974C5.34052 16.7968 4.80826 16.5934 4.40203 16.1872L3.81277 15.5979C3.40654 15.1917 3.20315 14.6594 3.20258 14.127C3.20256 14.1064 3.20284 14.0858 3.20343 14.0651C3.21723 13.5802 3.39941 13.0992 3.74996 12.7172L3.76185 12.7044C3.77845 12.6866 3.79543 12.669 3.81277 12.6516L3.82118 12.6432C3.84515 12.6193 3.85213 12.5832 3.83915 12.5519C3.82617 12.5206 3.79572 12.5 3.76185 12.5H3.74996C3.72543 12.5 3.701 12.4996 3.67667 12.4987L3.65918 12.498C3.14123 12.4758 2.67227 12.2645 2.31961 11.9314C2.30461 11.9172 2.28983 11.9028 2.27526 11.8882C1.89917 11.5113 1.66663 10.9912 1.66663 10.4167V9.58332C1.66663 9.00882 1.89917 8.48864 2.27526 8.11175C2.28983 8.09715 2.30461 8.08276 2.31961 8.0686C2.67227 7.73546 3.14123 7.52414 3.65918 7.50193L3.67667 7.50126C3.701 7.50041 3.72543 7.49999 3.74996 7.49999H3.76185C3.79572 7.49999 3.82617 7.4794 3.83915 7.44811C3.85213 7.4168 3.84515 7.38071 3.82118 7.35674L3.81277 7.34834C3.79543 7.33099 3.77845 7.31342 3.76185 7.29562L3.74996 7.28278C3.39941 6.90082 3.21723 6.41978 3.20343 5.93484C3.20284 5.91423 3.20256 5.89361 3.20258 5.87299C3.20315 5.34055 3.40654 4.80829 3.81277 4.40206L4.40203 3.81281C4.80826 3.40657 5.34052 3.20318 5.87296 3.20261C5.89358 3.20259 5.9142 3.20288 5.93481 3.20346C6.41975 3.21727 6.90079 3.39944 7.28275 3.74999L7.29559 3.76188C7.31339 3.77848 7.33096 3.79546 7.34831 3.81281L7.35671 3.82121C7.38068 3.84518 7.41677 3.85216 7.44808 3.83918C7.47937 3.8262 7.49996 3.79575 7.49996 3.76188V3.74999C7.49996 3.72546 7.50038 3.70103 7.50122 3.6767L7.5019 3.65921C7.52411 3.14126 7.73543 2.6723 8.06857 2.31964C8.08273 2.30464 8.09712 2.28986 8.11172 2.27529C8.48861 1.8992 9.00879 1.66666 9.58329 1.66666H10.4166ZM9.16663 16.25C9.16663 16.4801 9.35317 16.6667 9.58329 16.6667H10.4166C10.6467 16.6667 10.8333 16.4801 10.8333 16.25V16.2381C10.8333 15.5218 11.2676 14.8891 11.9134 14.6213C12.5606 14.3529 13.3155 14.4941 13.8217 15.0003L13.8301 15.0087C13.9928 15.1714 14.2567 15.1714 14.4194 15.0087L15.0086 14.4194C15.1714 14.2567 15.1714 13.9929 15.0086 13.8302L15.0002 13.8217C14.494 13.3155 14.3529 12.5606 14.6212 11.9134C14.889 11.2676 15.5218 10.8333 16.2381 10.8333H16.25C16.4801 10.8333 16.6666 10.6468 16.6666 10.4167V9.58332C16.6666 9.35321 16.4801 9.16666 16.25 9.16666H16.2381C15.5218 9.16666 14.889 8.73234 14.6212 8.08653C14.3529 7.43938 14.494 6.68443 15.0002 6.17823L15.0086 6.16983C15.1714 6.00711 15.1714 5.74329 15.0086 5.58057L14.4194 4.99132C14.2567 4.8286 13.9928 4.8286 13.8301 4.99132L13.8217 4.99972C13.3155 5.50591 12.5606 5.64708 11.9134 5.37873C11.2676 5.11092 10.8333 4.47816 10.8333 3.76188V3.74999C10.8333 3.51987 10.6467 3.33332 10.4166 3.33332H9.58329C9.35317 3.33332 9.16663 3.51987 9.16663 3.74999V3.76188C9.16663 4.47816 8.73232 5.11092 8.08649 5.37873C7.43934 5.64708 6.68439 5.50591 6.1782 4.99972L6.1698 4.99132C6.00708 4.8286 5.74326 4.8286 5.58054 4.99132L4.99129 5.58057C4.82857 5.74329 4.82857 6.00711 4.99129 6.16983L4.99969 6.17823C5.50589 6.68443 5.64705 7.43938 5.37869 8.08653C5.11088 8.73234 4.47814 9.16666 3.76185 9.16666H3.74996C3.51984 9.16666 3.33329 9.35321 3.33329 9.58332V10.4167C3.33329 10.6468 3.51984 10.8333 3.74996 10.8333H3.76185C4.47814 10.8333 5.11088 11.2676 5.37869 11.9134C5.64705 12.5606 5.50589 13.3155 4.99969 13.8217L4.99129 13.8302C4.82857 13.9929 4.82857 14.2567 4.99129 14.4194L5.58054 15.0087C5.74326 15.1714 6.00708 15.1714 6.1698 15.0087L6.1782 15.0003C6.68439 14.4941 7.43934 14.3529 8.08649 14.6213C8.7323 14.8891 9.16663 15.5218 9.16663 16.2381V16.25Z" fill="#262E3D"/>
<path fill-rule="evenodd" clip-rule="evenodd" d="M9.99996 11.6667C10.9204 11.6667 11.6666 10.9205 11.6666 9.99999C11.6666 9.07952 10.9204 8.33332 9.99996 8.33332C9.07948 8.33332 8.33329 9.07952 8.33329 9.99999C8.33329 10.9205 9.07948 11.6667 9.99996 11.6667ZM9.99996 13.3333C11.8409 13.3333 13.3333 11.8409 13.3333 9.99999C13.3333 8.15904 11.8409 6.66666 9.99996 6.66666C8.15901 6.66666 6.66663 8.15904 6.66663 9.99999C6.66663 11.8409 8.15901 13.3333 9.99996 13.3333Z" fill="#262E3D"/>
</svg>
